<svg xmlns="http://www.w3.org/2000/svg" xmlns:xlink="http://www.w3.org/1999/xlink" width="1920" zoomAndPan="magnify" viewBox="0 0 1440 809.999993" height="1080" preserveAspectRatio="xMidYMid meet" version="1.0"><defs><g/></defs><rect x="-144" width="1728" fill="#ffffff" y="-80.999999" height="971.999992" fill-opacity="1"/><rect x="-144" width="1728" fill="#ffffff" y="-80.999999" height="971.999992" fill-opacity="1"/><path stroke-linecap="round" transform="matrix(0.521661, 0, 0, 0.521963, 294.681085, -870.839528)" fill-opacity="1" fill="#000000" fill-rule="nonzero" stroke-linejoin="round" d="M 232.045994 2835.367152 L 269.052175 2823.333253 " stroke="#ac00ac" stroke-width="10" stroke-opacity="1" stroke-miterlimit="4"/><path stroke-linecap="round" transform="matrix(0.521661, 0, 0, 0.521963, 294.681085, -870.839528)" fill-opacity="1" fill="#000000" fill-rule="nonzero" stroke-linejoin="round" d="M 232.045994 2835.367152 L 202.063649 2845.103534 " stroke="#ff0000" stroke-width="10" stroke-opacity="1" stroke-miterlimit="4"/><path stroke-linecap="round" transform="matrix(0.521661, 0, 0, 0.521963, 294.681085, -870.839528)" fill-opacity="1" fill="#000000" fill-rule="nonzero" stroke-linejoin="round" d="M 241.263843 2863.760568 L 278.285 2851.734153 " stroke="#ac00ac" stroke-width="10" stroke-opacity="1" stroke-miterlimit="4"/><path stroke-linecap="round" transform="matrix(0.521661, 0, 0, 0.521963, 294.681085, -870.839528)" fill-opacity="1" fill="#000000" fill-rule="nonzero" stroke-linejoin="round" d="M 241.263843 2863.760568 L 211.281498 2873.496951 " stroke="#ff0000" stroke-width="10" stroke-opacity="1" stroke-miterlimit="4"/><path stroke-linecap="round" transform="matrix(0.521661, 0, 0, 0.521963, 294.681085, -870.839528)" fill-opacity="1" fill="#ff0000" fill-rule="nonzero" stroke-linejoin="round" d="M 344.98149 2814.367699 L 422.498282 2808.784808 L 410.981587 2773.326714 Z M 344.98149 2814.367699 " stroke="#ff0000" stroke-width="7" stroke-opacity="1" stroke-miterlimit="4"/><path stroke-linecap="round" transform="matrix(0.521661, 0, 0, 0.521963, 294.681085, -870.839528)" fill-opacity="1" fill="#ac00ac" fill-rule="nonzero" stroke-linejoin="round" d="M 344.98149 2814.367699 L 383.747374 2811.576253 L 377.981538 2793.847206 Z M 344.98149 2814.367699 " stroke="#ac00ac" stroke-width="7" stroke-opacity="1" stroke-miterlimit="4"/><path stroke-linecap="round" transform="matrix(0.521661, 0, 0, 0.521963, 294.681085, -870.839528)" fill-opacity="1" fill="#000000" fill-rule="nonzero" stroke-linejoin="round" d="M 334.513129 2899.435691 L 322.487243 2862.41349 " stroke="#ac00ac" stroke-width="10" stroke-opacity="1" stroke-miterlimit="4"/><path stroke-linecap="round" transform="matrix(0.521661, 0, 0, 0.521963, 294.681085, -870.839528)" fill-opacity="1" fill="#000000" fill-rule="nonzero" stroke-linejoin="round" d="M 334.513129 2899.435691 L 344.255145 2929.408183 " stroke="#ff0000" stroke-width="10" stroke-opacity="1" stroke-miterlimit="4"/><path stroke-linecap="round" transform="matrix(0.521661, 0, 0, 0.521963, 294.681085, -870.839528)" fill-opacity="1" fill="#000000" fill-rule="nonzero" stroke-linejoin="round" d="M 286.521908 2751.698624 L 298.547794 2788.713341 " stroke="#ac00ac" stroke-width="10" stroke-opacity="1" stroke-miterlimit="4"/><path stroke-linecap="round" transform="matrix(0.521661, 0, 0, 0.521963, 294.681085, -870.839528)" fill-opacity="1" fill="#000000" fill-rule="nonzero" stroke-linejoin="round" d="M 286.521908 2751.698624 L 262.522553 2677.833832 " stroke="#000000" stroke-width="10" stroke-opacity="1" stroke-miterlimit="4"/><path stroke-linecap="round" transform="matrix(0.521661, 0, 0, 0.521963, 294.681085, -870.839528)" fill-opacity="1" fill="#000000" fill-rule="nonzero" stroke-linejoin="round" d="M 314.497443 2620.119012 L 262.522553 2677.833832 " stroke="#000000" stroke-width="10" stroke-opacity="1" stroke-miterlimit="4"/><path stroke-linecap="round" transform="matrix(0.521661, 0, 0, 0.521963, 294.681085, -870.839528)" fill-opacity="1" fill="#000000" fill-rule="nonzero" stroke-linejoin="round" d="M 314.497443 2620.119012 L 335.583927 2596.694818 " stroke="#ff0000" stroke-width="10" stroke-opacity="1" stroke-miterlimit="4"/><path stroke-linecap="round" transform="matrix(0.521661, 0, 0, 0.521963, 294.681085, -870.839528)" fill-opacity="1" fill="#000000" fill-rule="nonzero" stroke-linejoin="round" d="M 342.472977 2488.539401 L 352.214993 2518.519376 " stroke="#ff0000" stroke-width="10" stroke-opacity="1" stroke-miterlimit="4"/><path stroke-linecap="round" transform="matrix(0.521661, 0, 0, 0.521963, 294.681085, -870.839528)" fill-opacity="1" fill="#000000" fill-rule="nonzero" stroke-linejoin="round" d="M 342.472977 2488.539401 L 318.473623 2414.674609 " stroke="#000000" stroke-width="10" stroke-opacity="1" stroke-miterlimit="4"/><path stroke-linecap="round" transform="matrix(0.521661, 0, 0, 0.521963, 294.681085, -870.839528)" fill-opacity="1" fill="#000000" fill-rule="nonzero" stroke-linejoin="round" d="M 303.662165 2409.615582 L 302.898379 2413.267661 " stroke="#000000" stroke-width="7" stroke-opacity="1" stroke-miterlimit="4"/><path stroke-linecap="round" transform="matrix(0.521661, 0, 0, 0.521963, 294.681085, -870.839528)" fill-opacity="1" fill="#000000" fill-rule="nonzero" stroke-linejoin="round" d="M 288.865683 2404.564038 L 287.315646 2411.853228 " stroke="#000000" stroke-width="7" stroke-opacity="1" stroke-miterlimit="4"/><path stroke-linecap="round" transform="matrix(0.521661, 0, 0, 0.521963, 294.681085, -870.839528)" fill-opacity="1" fill="#000000" fill-rule="nonzero" stroke-linejoin="round" d="M 274.054225 2399.519979 L 271.732914 2410.453764 " stroke="#000000" stroke-width="7" stroke-opacity="1" stroke-miterlimit="4"/><path stroke-linecap="round" transform="matrix(0.521661, 0, 0, 0.521963, 294.681085, -870.839528)" fill-opacity="1" fill="#000000" fill-rule="nonzero" stroke-linejoin="round" d="M 259.257743 2394.453467 L 256.15767 2409.046815 " stroke="#000000" stroke-width="7" stroke-opacity="1" stroke-miterlimit="4"/><path stroke-linecap="round" transform="matrix(0.521661, 0, 0, 0.521963, 294.681085, -870.839528)" fill-opacity="1" fill="#000000" fill-rule="nonzero" stroke-linejoin="round" d="M 244.446285 2389.409408 L 240.56745 2407.639867 " stroke="#000000" stroke-width="7" stroke-opacity="1" stroke-miterlimit="4"/><path stroke-linecap="round" transform="matrix(0.521661, 0, 0, 0.521963, 294.681085, -870.839528)" fill-opacity="1" fill="#000000" fill-rule="nonzero" stroke-linejoin="round" d="M 229.634826 2384.357864 L 224.984717 2406.225435 " stroke="#000000" stroke-width="7" stroke-opacity="1" stroke-miterlimit="4"/><path stroke-linecap="round" transform="matrix(0.521661, 0, 0, 0.521963, 294.681085, -870.839528)" fill-opacity="1" fill="#000000" fill-rule="nonzero" stroke-linejoin="round" d="M 214.838345 2379.298837 L 209.401985 2404.82597 " stroke="#000000" stroke-width="7" stroke-opacity="1" stroke-miterlimit="4"/><path stroke-linecap="round" transform="matrix(0.521661, 0, 0, 0.521963, 294.681085, -870.839528)" fill-opacity="1" fill="#000000" fill-rule="nonzero" stroke-linejoin="round" d="M 200.026886 2374.247293 L 193.826741 2403.419022 " stroke="#000000" stroke-width="7" stroke-opacity="1" stroke-miterlimit="4"/><path stroke-linecap="round" transform="matrix(0.521661, 0, 0, 0.521963, 294.681085, -870.839528)" fill-opacity="1" fill="#000000" fill-rule="nonzero" stroke-linejoin="round" d="M 185.222916 2369.188266 L 178.244009 2402.00459 " stroke="#000000" stroke-width="7" stroke-opacity="1" stroke-miterlimit="4"/><path stroke-linecap="round" transform="matrix(0.521661, 0, 0, 0.521963, 294.681085, -870.839528)" fill-opacity="1" fill="#000000" fill-rule="nonzero" stroke-linejoin="round" d="M 170.411458 2364.136723 L 162.661277 2400.605125 " stroke="#000000" stroke-width="7" stroke-opacity="1" stroke-miterlimit="4"/><path stroke-linecap="round" transform="matrix(0.521661, 0, 0, 0.521963, 294.681085, -870.839528)" fill-opacity="1" fill="#000000" fill-rule="nonzero" stroke-linejoin="round" d="M 318.473623 2414.674609 L 422.415913 2299.244969 " stroke="#000000" stroke-width="10" stroke-opacity="1" stroke-miterlimit="4"/><path stroke-linecap="round" transform="matrix(0.521661, 0, 0, 0.521963, 294.681085, -870.839528)" fill-opacity="1" fill="#000000" fill-rule="nonzero" stroke-linejoin="round" d="M 398.424046 2225.380177 L 422.415913 2299.244969 " stroke="#000000" stroke-width="10" stroke-opacity="1" stroke-miterlimit="4"/><path stroke-linecap="round" transform="matrix(0.521661, 0, 0, 0.521963, 294.681085, -870.839528)" fill-opacity="1" fill="#000000" fill-rule="nonzero" stroke-linejoin="round" d="M 398.424046 2225.380177 L 386.937304 2190.019373 " stroke="#0000ff" stroke-width="10" stroke-opacity="1" stroke-miterlimit="4"/><path stroke-linecap="round" transform="matrix(0.521661, 0, 0, 0.521963, 294.681085, -870.839528)" fill-opacity="1" fill="#000000" fill-rule="nonzero" stroke-linejoin="round" d="M 300.037925 2127.335331 L 335.928379 2138.995042 " stroke="#0000ff" stroke-width="10" stroke-opacity="1" stroke-miterlimit="4"/><path stroke-linecap="round" transform="matrix(0.521661, 0, 0, 0.521963, 294.681085, -870.839528)" fill-opacity="1" fill="#000000" fill-rule="nonzero" stroke-linejoin="round" d="M 300.037925 2127.335331 L 225.64367 2103.155276 " stroke="#000000" stroke-width="10" stroke-opacity="1" stroke-miterlimit="4"/><path stroke-linecap="round" transform="matrix(0.521661, 0, 0, 0.521963, 294.681085, -870.839528)" fill-opacity="1" fill="#000000" fill-rule="nonzero" stroke-linejoin="round" d="M 420.401614 2088.225158 L 398.221868 2118.758932 " stroke="#0000ff" stroke-width="10" stroke-opacity="1" stroke-miterlimit="4"/><path stroke-linecap="round" transform="matrix(0.521661, 0, 0, 0.521963, 294.681085, -870.839528)" fill-opacity="1" fill="#000000" fill-rule="nonzero" stroke-linejoin="round" d="M 420.401614 2088.225158 L 466.386025 2024.949899 " stroke="#000000" stroke-width="10" stroke-opacity="1" stroke-miterlimit="4"/><path stroke-linecap="round" transform="matrix(0.521661, 0, 0, 0.521963, 294.681085, -870.839528)" fill-opacity="1" fill="#000000" fill-rule="nonzero" stroke-linejoin="round" d="M 158.235811 2141.726617 L 225.64367 2103.155276 " stroke="#000000" stroke-width="10" stroke-opacity="1" stroke-miterlimit="4"/><path stroke-linecap="round" transform="matrix(0.521661, 0, 0, 0.521963, 294.681085, -870.839528)" fill-opacity="1" fill="#000000" fill-rule="nonzero" stroke-linejoin="round" d="M 158.235811 2141.726617 L 125.962108 2160.189073 " stroke="#0000ff" stroke-width="10" stroke-opacity="1" stroke-miterlimit="4"/><path stroke-linecap="round" transform="matrix(0.521661, 0, 0, 0.521963, 294.681085, -870.839528)" fill="none" stroke-linejoin="round" d="M 225.64367 2103.155276 L 225.64367 1946.714586 " stroke="#000000" stroke-width="10" stroke-opacity="1" stroke-miterlimit="4"/><path stroke-linecap="round" transform="matrix(0.521661, 0, 0, 0.521963, 294.681085, -870.839528)" fill="none" stroke-linejoin="round" d="M 195.796111 2078.129555 L 195.796111 1971.747791 " stroke="#000000" stroke-width="10" stroke-opacity="1" stroke-miterlimit="4"/><path stroke-linecap="round" transform="matrix(0.521661, 0, 0, 0.521963, 294.681085, -870.839528)" fill-opacity="1" fill="#000000" fill-rule="nonzero" stroke-linejoin="round" d="M 23.405116 2141.629328 L 55.701283 2160.14417 " stroke="#0000ff" stroke-width="10" stroke-opacity="1" stroke-miterlimit="4"/><path stroke-linecap="round" transform="matrix(0.521661, 0, 0, 0.521963, 294.681085, -870.839528)" fill-opacity="1" fill="#000000" fill-rule="nonzero" stroke-linejoin="round" d="M 23.405116 2141.629328 L -44.002744 2102.960698 " stroke="#000000" stroke-width="10" stroke-opacity="1" stroke-miterlimit="4"/><path stroke-linecap="round" transform="matrix(0.521661, 0, 0, 0.521963, 294.681085, -870.839528)" fill-opacity="1" fill="#000000" fill-rule="nonzero" stroke-linejoin="round" d="M 38.254014 2115.728006 L 84.103639 2142.025968 " stroke="#0000ff" stroke-width="10" stroke-opacity="1" stroke-miterlimit="4"/><path stroke-linecap="round" transform="matrix(0.521661, 0, 0, 0.521963, 294.681085, -870.839528)" fill-opacity="1" fill="#000000" fill-rule="nonzero" stroke-linejoin="round" d="M 38.254014 2115.728006 L -7.588122 2089.437529 " stroke="#000000" stroke-width="10" stroke-opacity="1" stroke-miterlimit="4"/><path stroke-linecap="round" transform="matrix(0.521661, 0, 0, 0.521963, 294.681085, -870.839528)" fill="none" stroke-linejoin="round" d="M -44.002744 2024.837642 L -44.002744 2102.960698 " stroke="#000000" stroke-width="10" stroke-opacity="1" stroke-miterlimit="4"/><path stroke-linecap="round" transform="matrix(0.521661, 0, 0, 0.521963, 294.681085, -870.839528)" fill="none" stroke-linejoin="round" d="M -44.002744 2024.837642 L -44.002744 1987.209256 " stroke="#0000ff" stroke-width="10" stroke-opacity="1" stroke-miterlimit="4"/><path stroke-linecap="round" transform="matrix(0.521661, 0, 0, 0.521963, 294.681085, -870.839528)" fill-opacity="1" fill="#000000" fill-rule="nonzero" stroke-linejoin="round" d="M 23.405116 1907.275128 L -9.063278 1926.276416 " stroke="#0000ff" stroke-width="10" stroke-opacity="1" stroke-miterlimit="4"/><path stroke-linecap="round" transform="matrix(0.521661, 0, 0, 0.521963, 294.681085, -870.839528)" fill-opacity="1" fill="#000000" fill-rule="nonzero" stroke-linejoin="round" d="M 23.405116 1907.275128 L 90.827951 1867.828186 " stroke="#000000" stroke-width="10" stroke-opacity="1" stroke-miterlimit="4"/><path stroke-linecap="round" transform="matrix(0.521661, 0, 0, 0.521963, 294.681085, -870.839528)" fill-opacity="1" fill="#000000" fill-rule="nonzero" stroke-linejoin="round" d="M 38.486145 1933.034258 L -7.355991 1959.863567 " stroke="#0000ff" stroke-width="10" stroke-opacity="1" stroke-miterlimit="4"/><path stroke-linecap="round" transform="matrix(0.521661, 0, 0, 0.521963, 294.681085, -870.839528)" fill-opacity="1" fill="#000000" fill-rule="nonzero" stroke-linejoin="round" d="M 38.486145 1933.034258 L 84.328282 1906.212433 " stroke="#000000" stroke-width="10" stroke-opacity="1" stroke-miterlimit="4"/><path stroke-linecap="round" transform="matrix(0.521661, 0, 0, 0.521963, 294.681085, -870.839528)" fill="none" stroke-linejoin="round" d="M 90.827951 1790.169124 L 90.827951 1867.828186 " stroke="#000000" stroke-width="10" stroke-opacity="1" stroke-miterlimit="4"/><path stroke-linecap="round" transform="matrix(0.521661, 0, 0, 0.521963, 294.681085, -870.839528)" fill="none" stroke-linejoin="round" d="M 90.827951 1790.169124 L 90.827951 1752.974796 " stroke="#0000ff" stroke-width="10" stroke-opacity="1" stroke-miterlimit="4"/><path stroke-linecap="round" transform="matrix(0.521661, 0, 0, 0.521963, 294.681085, -870.839528)" fill-opacity="1" fill="#000000" fill-rule="nonzero" stroke-linejoin="round" d="M 90.827951 1867.828186 L 225.64367 1946.714586 " stroke="#000000" stroke-width="10" stroke-opacity="1" stroke-miterlimit="4"/><path stroke-linecap="round" transform="matrix(0.521661, 0, 0, 0.521963, 294.681085, -870.839528)" fill-opacity="1" fill="#000000" fill-rule="nonzero" stroke-linejoin="round" d="M 300.037925 1922.564467 L 225.64367 1946.714586 " stroke="#000000" stroke-width="10" stroke-opacity="1" stroke-miterlimit="4"/><path stroke-linecap="round" transform="matrix(0.521661, 0, 0, 0.521963, 294.681085, -870.839528)" fill-opacity="1" fill="#000000" fill-rule="nonzero" stroke-linejoin="round" d="M 300.037925 1922.564467 L 335.913403 1910.919723 " stroke="#0000ff" stroke-width="10" stroke-opacity="1" stroke-miterlimit="4"/><path stroke-linecap="round" transform="matrix(0.521661, 0, 0, 0.521963, 294.681085, -870.839528)" fill-opacity="1" fill="#000000" fill-rule="nonzero" stroke-linejoin="round" d="M 420.401614 1961.674639 L 398.221868 1931.163316 " stroke="#0000ff" stroke-width="10" stroke-opacity="1" stroke-miterlimit="4"/><path stroke-linecap="round" transform="matrix(0.521661, 0, 0, 0.521963, 294.681085, -870.839528)" fill-opacity="1" fill="#000000" fill-rule="nonzero" stroke-linejoin="round" d="M 420.401614 1961.674639 L 466.386025 2024.949899 " stroke="#000000" stroke-width="10" stroke-opacity="1" stroke-miterlimit="4"/><path stroke-linecap="round" transform="matrix(0.521661, 0, 0, 0.521963, 294.681085, -870.839528)" fill-opacity="1" fill="#000000" fill-rule="nonzero" stroke-linejoin="round" d="M 396.252498 1979.224075 L 364.9822 1936.207376 " stroke="#0000ff" stroke-width="10" stroke-opacity="1" stroke-miterlimit="4"/><path stroke-linecap="round" transform="matrix(0.521661, 0, 0, 0.521963, 294.681085, -870.839528)" fill-opacity="1" fill="#000000" fill-rule="nonzero" stroke-linejoin="round" d="M 396.252498 1979.224075 L 427.522796 2022.255742 " stroke="#000000" stroke-width="10" stroke-opacity="1" stroke-miterlimit="4"/><g fill="#ac00ac" fill-opacity="1"><g transform="translate(445.006808, 615.538495)"><g><path d="M 21.46875 -16.8125 C 21.46875 -14.539062 20.722656 -12.734375 19.234375 -11.390625 C 17.753906 -10.046875 15.738281 -9.375 13.1875 -9.375 L 6.125 -9.375 L 6.125 0 L 2.875 0 L 2.875 -24.0625 L 12.984375 -24.0625 C 15.679688 -24.0625 17.769531 -23.425781 19.25 -22.15625 C 20.726562 -20.894531 21.46875 -19.113281 21.46875 -16.8125 Z M 18.1875 -16.78125 C 18.1875 -19.894531 16.320312 -21.453125 12.59375 -21.453125 L 6.125 -21.453125 L 6.125 -11.953125 L 12.734375 -11.953125 C 16.367188 -11.953125 18.1875 -13.5625 18.1875 -16.78125 Z M 18.1875 -16.78125 "/></g></g></g><g fill="#ff0000" fill-opacity="1"><g transform="translate(366.002013, 640.580431)"><g><path d="M 25.515625 -12.140625 C 25.515625 -9.617188 25.03125 -7.414062 24.0625 -5.53125 C 23.101562 -3.644531 21.722656 -2.191406 19.921875 -1.171875 C 18.128906 -0.160156 16.007812 0.34375 13.5625 0.34375 C 11.09375 0.34375 8.960938 -0.15625 7.171875 -1.15625 C 5.378906 -2.15625 4.007812 -3.601562 3.0625 -5.5 C 2.125 -7.394531 1.65625 -9.609375 1.65625 -12.140625 C 1.65625 -15.984375 2.707031 -18.988281 4.8125 -21.15625 C 6.914062 -23.332031 9.847656 -24.421875 13.609375 -24.421875 C 16.046875 -24.421875 18.164062 -23.929688 19.96875 -22.953125 C 21.769531 -21.984375 23.144531 -20.570312 24.09375 -18.71875 C 25.039062 -16.863281 25.515625 -14.671875 25.515625 -12.140625 Z M 22.1875 -12.140625 C 22.1875 -15.128906 21.4375 -17.476562 19.9375 -19.1875 C 18.445312 -20.894531 16.335938 -21.75 13.609375 -21.75 C 10.847656 -21.75 8.71875 -20.90625 7.21875 -19.21875 C 5.71875 -17.539062 4.96875 -15.179688 4.96875 -12.140625 C 4.96875 -9.117188 5.722656 -6.722656 7.234375 -4.953125 C 8.753906 -3.191406 10.863281 -2.3125 13.5625 -2.3125 C 16.34375 -2.3125 18.472656 -3.164062 19.953125 -4.875 C 21.441406 -6.582031 22.1875 -9.003906 22.1875 -12.140625 Z M 22.1875 -12.140625 "/></g></g></g><g fill="#ff0000" fill-opacity="1"><g transform="translate(520.13308, 590.481919)"><g><path d="M 25.515625 -12.140625 C 25.515625 -9.617188 25.03125 -7.414062 24.0625 -5.53125 C 23.101562 -3.644531 21.722656 -2.191406 19.921875 -1.171875 C 18.128906 -0.160156 16.007812 0.34375 13.5625 0.34375 C 11.09375 0.34375 8.960938 -0.15625 7.171875 -1.15625 C 5.378906 -2.15625 4.007812 -3.601562 3.0625 -5.5 C 2.125 -7.394531 1.65625 -9.609375 1.65625 -12.140625 C 1.65625 -15.984375 2.707031 -18.988281 4.8125 -21.15625 C 6.914062 -23.332031 9.847656 -24.421875 13.609375 -24.421875 C 16.046875 -24.421875 18.164062 -23.929688 19.96875 -22.953125 C 21.769531 -21.984375 23.144531 -20.570312 24.09375 -18.71875 C 25.039062 -16.863281 25.515625 -14.671875 25.515625 -12.140625 Z M 22.1875 -12.140625 C 22.1875 -15.128906 21.4375 -17.476562 19.9375 -19.1875 C 18.445312 -20.894531 16.335938 -21.75 13.609375 -21.75 C 10.847656 -21.75 8.71875 -20.90625 7.21875 -19.21875 C 5.71875 -17.539062 4.96875 -15.179688 4.96875 -12.140625 C 4.96875 -9.117188 5.722656 -6.722656 7.234375 -4.953125 C 8.753906 -3.191406 10.863281 -2.3125 13.5625 -2.3125 C 16.34375 -2.3125 18.472656 -3.164062 19.953125 -4.875 C 21.441406 -6.582031 22.1875 -9.003906 22.1875 -12.140625 Z M 22.1875 -12.140625 "/></g></g></g><g fill="#ff0000" fill-opacity="1"><g transform="translate(547.853547, 590.481919)"><g><path d="M 19.125 0 L 19.125 -11.15625 L 6.125 -11.15625 L 6.125 0 L 2.875 0 L 2.875 -24.0625 L 6.125 -24.0625 L 6.125 -13.875 L 19.125 -13.875 L 19.125 -24.0625 L 22.390625 -24.0625 L 22.390625 0 Z M 19.125 0 "/></g></g></g><g fill="#ff0000" fill-opacity="1"><g transform="translate(472.25893, 478.173957)"><g><path d="M 25.515625 -12.140625 C 25.515625 -9.617188 25.03125 -7.414062 24.0625 -5.53125 C 23.101562 -3.644531 21.722656 -2.191406 19.921875 -1.171875 C 18.128906 -0.160156 16.007812 0.34375 13.5625 0.34375 C 11.09375 0.34375 8.960938 -0.15625 7.171875 -1.15625 C 5.378906 -2.15625 4.007812 -3.601562 3.0625 -5.5 C 2.125 -7.394531 1.65625 -9.609375 1.65625 -12.140625 C 1.65625 -15.984375 2.707031 -18.988281 4.8125 -21.15625 C 6.914062 -23.332031 9.847656 -24.421875 13.609375 -24.421875 C 16.046875 -24.421875 18.164062 -23.929688 19.96875 -22.953125 C 21.769531 -21.984375 23.144531 -20.570312 24.09375 -18.71875 C 25.039062 -16.863281 25.515625 -14.671875 25.515625 -12.140625 Z M 22.1875 -12.140625 C 22.1875 -15.128906 21.4375 -17.476562 19.9375 -19.1875 C 18.445312 -20.894531 16.335938 -21.75 13.609375 -21.75 C 10.847656 -21.75 8.71875 -20.90625 7.21875 -19.21875 C 5.71875 -17.539062 4.96875 -15.179688 4.96875 -12.140625 C 4.96875 -9.117188 5.722656 -6.722656 7.234375 -4.953125 C 8.753906 -3.191406 10.863281 -2.3125 13.5625 -2.3125 C 16.34375 -2.3125 18.472656 -3.164062 19.953125 -4.875 C 21.441406 -6.582031 22.1875 -9.003906 22.1875 -12.140625 Z M 22.1875 -12.140625 "/></g></g></g><g fill="#0000ff" fill-opacity="1"><g transform="translate(477.381509, 263.706621)"><g><path d="M 18.46875 0 L 5.59375 -20.484375 L 5.6875 -18.828125 L 5.765625 -15.984375 L 5.765625 0 L 2.875 0 L 2.875 -24.0625 L 6.65625 -24.0625 L 19.65625 -3.4375 C 19.519531 -5.664062 19.453125 -7.28125 19.453125 -8.28125 L 19.453125 -24.0625 L 22.390625 -24.0625 L 22.390625 0 Z M 18.46875 0 "/></g></g></g><g fill="#0000ff" fill-opacity="1"><g transform="translate(329.441439, 278.731783)"><g><path d="M 18.46875 0 L 5.59375 -20.484375 L 5.6875 -18.828125 L 5.765625 -15.984375 L 5.765625 0 L 2.875 0 L 2.875 -24.0625 L 6.65625 -24.0625 L 19.65625 -3.4375 C 19.519531 -5.664062 19.453125 -7.28125 19.453125 -8.28125 L 19.453125 -24.0625 L 22.390625 -24.0625 L 22.390625 0 Z M 18.46875 0 "/></g></g></g><g fill="#0000ff" fill-opacity="1"><g transform="translate(259.115755, 156.80245)"><g><path d="M 18.46875 0 L 5.59375 -20.484375 L 5.6875 -18.828125 L 5.765625 -15.984375 L 5.765625 0 L 2.875 0 L 2.875 -24.0625 L 6.65625 -24.0625 L 19.65625 -3.4375 C 19.519531 -5.664062 19.453125 -7.28125 19.453125 -8.28125 L 19.453125 -24.0625 L 22.390625 -24.0625 L 22.390625 0 Z M 18.46875 0 "/></g></g></g><g fill="#0000ff" fill-opacity="1"><g transform="translate(329.441439, 34.55094)"><g><path d="M 18.46875 0 L 5.59375 -20.484375 L 5.6875 -18.828125 L 5.765625 -15.984375 L 5.765625 0 L 2.875 0 L 2.875 -24.0625 L 6.65625 -24.0625 L 19.65625 -3.4375 C 19.519531 -5.664062 19.453125 -7.28125 19.453125 -8.28125 L 19.453125 -24.0625 L 22.390625 -24.0625 L 22.390625 0 Z M 18.46875 0 "/></g></g></g><g fill="#0000ff" fill-opacity="1"><g transform="translate(353.898092, 34.55094)"><g><path d="M 19.125 0 L 19.125 -11.15625 L 6.125 -11.15625 L 6.125 0 L 2.875 0 L 2.875 -24.0625 L 6.125 -24.0625 L 6.125 -13.875 L 19.125 -13.875 L 19.125 -24.0625 L 22.390625 -24.0625 L 22.390625 0 Z M 19.125 0 "/></g></g></g><g fill="#0000ff" fill-opacity="1"><g transform="translate(379.145085, 38.050949)"><g><path d="M 0.890625 0 L 0.890625 -1.09375 C 1.179688 -1.769531 1.539062 -2.363281 1.96875 -2.875 C 2.394531 -3.394531 2.84375 -3.863281 3.3125 -4.28125 C 3.78125 -4.707031 4.242188 -5.097656 4.703125 -5.453125 C 5.160156 -5.816406 5.570312 -6.175781 5.9375 -6.53125 C 6.3125 -6.882812 6.609375 -7.257812 6.828125 -7.65625 C 7.054688 -8.050781 7.171875 -8.492188 7.171875 -8.984375 C 7.171875 -9.660156 6.972656 -10.179688 6.578125 -10.546875 C 6.191406 -10.910156 5.648438 -11.09375 4.953125 -11.09375 C 4.285156 -11.09375 3.738281 -10.910156 3.3125 -10.546875 C 2.882812 -10.191406 2.628906 -9.691406 2.546875 -9.046875 L 0.96875 -9.1875 C 1.082031 -10.164062 1.492188 -10.941406 2.203125 -11.515625 C 2.910156 -12.097656 3.828125 -12.390625 4.953125 -12.390625 C 6.179688 -12.390625 7.125 -12.097656 7.78125 -11.515625 C 8.445312 -10.929688 8.78125 -10.109375 8.78125 -9.046875 C 8.78125 -8.566406 8.671875 -8.09375 8.453125 -7.625 C 8.234375 -7.15625 7.910156 -6.6875 7.484375 -6.21875 C 7.054688 -5.757812 6.242188 -5.035156 5.046875 -4.046875 C 4.378906 -3.503906 3.847656 -3.015625 3.453125 -2.578125 C 3.054688 -2.148438 2.773438 -1.734375 2.609375 -1.328125 L 8.96875 -1.328125 L 8.96875 0 Z M 0.890625 0 "/></g></g></g><g fill="#0000ff" fill-opacity="1"><g transform="translate(477.381509, 131.599421)"><g><path d="M 18.46875 0 L 5.59375 -20.484375 L 5.6875 -18.828125 L 5.765625 -15.984375 L 5.765625 0 L 2.875 0 L 2.875 -24.0625 L 6.65625 -24.0625 L 19.65625 -3.4375 C 19.519531 -5.664062 19.453125 -7.28125 19.453125 -8.28125 L 19.453125 -24.0625 L 22.390625 -24.0625 L 22.390625 0 Z M 18.46875 0 "/></g></g></g><g fill="#ff0000" fill-opacity="1"><g transform="translate(471.351502, 688.218692)"><g><path d="M 25.515625 -12.140625 C 25.515625 -9.617188 25.03125 -7.414062 24.0625 -5.53125 C 23.101562 -3.644531 21.722656 -2.191406 19.921875 -1.171875 C 18.128906 -0.160156 16.007812 0.34375 13.5625 0.34375 C 11.09375 0.34375 8.960938 -0.15625 7.171875 -1.15625 C 5.378906 -2.15625 4.007812 -3.601562 3.0625 -5.5 C 2.125 -7.394531 1.65625 -9.609375 1.65625 -12.140625 C 1.65625 -15.984375 2.707031 -18.988281 4.8125 -21.15625 C 6.914062 -23.332031 9.847656 -24.421875 13.609375 -24.421875 C 16.046875 -24.421875 18.164062 -23.929688 19.96875 -22.953125 C 21.769531 -21.984375 23.144531 -20.570312 24.09375 -18.71875 C 25.039062 -16.863281 25.515625 -14.671875 25.515625 -12.140625 Z M 22.1875 -12.140625 C 22.1875 -15.128906 21.4375 -17.476562 19.9375 -19.1875 C 18.445312 -20.894531 16.335938 -21.75 13.609375 -21.75 C 10.847656 -21.75 8.71875 -20.90625 7.21875 -19.21875 C 5.71875 -17.539062 4.96875 -15.179688 4.96875 -12.140625 C 4.96875 -9.117188 5.722656 -6.722656 7.234375 -4.953125 C 8.753906 -3.191406 10.863281 -2.3125 13.5625 -2.3125 C 16.34375 -2.3125 18.472656 -3.164062 19.953125 -4.875 C 21.441406 -6.582031 22.1875 -9.003906 22.1875 -12.140625 Z M 22.1875 -12.140625 "/></g></g></g><g fill="#ff0000" fill-opacity="1"><g transform="translate(499.057329, 688.218692)"><g><path d="M 19.125 0 L 19.125 -11.15625 L 6.125 -11.15625 L 6.125 0 L 2.875 0 L 2.875 -24.0625 L 6.125 -24.0625 L 6.125 -13.875 L 19.125 -13.875 L 19.125 -24.0625 L 22.390625 -24.0625 L 22.390625 0 Z M 19.125 0 "/></g></g></g><path stroke-linecap="round" transform="matrix(0.40425, 0, 0, 0.404503, 409.442122, 314.053744)" fill-opacity="1" fill="#000000" fill-rule="nonzero" stroke-linejoin="round" d="M 1462.699554 623.674608 L 1492.210229 656.324623 " stroke="#ff0000" stroke-width="10" stroke-opacity="1" stroke-miterlimit="4"/><path stroke-linecap="round" transform="matrix(0.40425, 0, 0, 0.404503, 409.442122, 314.053744)" fill-opacity="1" fill="#000000" fill-rule="nonzero" stroke-linejoin="round" d="M 1462.699554 623.674608 L 1395.377723 549.181197 " stroke="#000000" stroke-width="10" stroke-opacity="1" stroke-miterlimit="4"/><path stroke-linecap="round" transform="matrix(0.40425, 0, 0, 0.404503, 409.442122, 314.053744)" fill-opacity="1" fill="#000000" fill-rule="nonzero" stroke-linejoin="round" d="M 1457.085375 358.080588 L 1372.447523 541.774347 L 1418.307924 556.578391 Z M 1457.085375 358.080588 " stroke="#000000" stroke-width="7" stroke-opacity="1" stroke-miterlimit="4"/><path stroke-linecap="round" transform="matrix(0.40425, 0, 0, 0.404503, 409.442122, 314.053744)" fill-opacity="1" fill="#000000" fill-rule="nonzero" stroke-linejoin="round" d="M 1397.648519 277.117047 L 1457.085375 358.080588 " stroke="#000000" stroke-width="10" stroke-opacity="1" stroke-miterlimit="4"/><path stroke-linecap="round" transform="matrix(0.40425, 0, 0, 0.404503, 409.442122, 314.053744)" fill-opacity="1" fill="#000000" fill-rule="nonzero" stroke-linejoin="round" d="M 1397.648519 277.117047 L 1371.577857 241.598929 " stroke="#ff0000" stroke-width="10" stroke-opacity="1" stroke-miterlimit="4"/><path stroke-linecap="round" transform="matrix(0.40425, 0, 0, 0.404503, 409.442122, 314.053744)" fill-opacity="1" fill="#000000" fill-rule="nonzero" stroke-linejoin="round" d="M 1457.085375 358.080588 L 1648.15105 296.276358 " stroke="#000000" stroke-width="10" stroke-opacity="1" stroke-miterlimit="4"/><path stroke-linecap="round" transform="matrix(0.40425, 0, 0, 0.404503, 409.442122, 314.053744)" fill-opacity="1" fill="#000000" fill-rule="nonzero" stroke-linejoin="round" d="M 1397.416608 114.475354 L 1371.307294 150.485974 " stroke="#ff0000" stroke-width="10" stroke-opacity="1" stroke-miterlimit="4"/><path stroke-linecap="round" transform="matrix(0.40425, 0, 0, 0.404503, 409.442122, 314.053744)" fill-opacity="1" fill="#000000" fill-rule="nonzero" stroke-linejoin="round" d="M 1397.416608 114.475354 L 1456.640879 32.816515 " stroke="#000000" stroke-width="10" stroke-opacity="1" stroke-miterlimit="4"/><path stroke-linecap="round" transform="matrix(0.40425, 0, 0, 0.404503, 409.442122, 314.053744)" fill-opacity="1" fill="#000000" fill-rule="nonzero" stroke-linejoin="round" d="M 1658.616033 306.860332 L 1661.456943 302.95894 " stroke="#000000" stroke-width="7" stroke-opacity="1" stroke-miterlimit="4"/><path stroke-linecap="round" transform="matrix(0.40425, 0, 0, 0.404503, 409.442122, 314.053744)" fill-opacity="1" fill="#000000" fill-rule="nonzero" stroke-linejoin="round" d="M 1669.09068 317.444307 L 1674.753174 309.641523 " stroke="#000000" stroke-width="7" stroke-opacity="1" stroke-miterlimit="4"/><path stroke-linecap="round" transform="matrix(0.40425, 0, 0, 0.404503, 409.442122, 314.053744)" fill-opacity="1" fill="#000000" fill-rule="nonzero" stroke-linejoin="round" d="M 1679.555664 328.018624 L 1688.059067 316.333762 " stroke="#000000" stroke-width="7" stroke-opacity="1" stroke-miterlimit="4"/><path stroke-linecap="round" transform="matrix(0.40425, 0, 0, 0.404503, 409.442122, 314.053744)" fill-opacity="1" fill="#000000" fill-rule="nonzero" stroke-linejoin="round" d="M 1690.030311 338.612255 L 1701.355298 323.016344 " stroke="#000000" stroke-width="7" stroke-opacity="1" stroke-miterlimit="4"/><path stroke-linecap="round" transform="matrix(0.40425, 0, 0, 0.404503, 409.442122, 314.053744)" fill-opacity="1" fill="#000000" fill-rule="nonzero" stroke-linejoin="round" d="M 1700.495295 349.19623 L 1714.670855 329.698927 " stroke="#000000" stroke-width="7" stroke-opacity="1" stroke-miterlimit="4"/><path stroke-linecap="round" transform="matrix(0.40425, 0, 0, 0.404503, 409.442122, 314.053744)" fill-opacity="1" fill="#000000" fill-rule="nonzero" stroke-linejoin="round" d="M 1710.969942 359.780204 L 1727.967085 336.381509 " stroke="#ff0000" stroke-width="7" stroke-opacity="1" stroke-miterlimit="4"/><path stroke-linecap="round" transform="matrix(0.40425, 0, 0, 0.404503, 409.442122, 314.053744)" fill-opacity="1" fill="#000000" fill-rule="nonzero" stroke-linejoin="round" d="M 1721.434925 370.364178 L 1741.263316 343.073748 " stroke="#ff0000" stroke-width="7" stroke-opacity="1" stroke-miterlimit="4"/><path stroke-linecap="round" transform="matrix(0.40425, 0, 0, 0.404503, 409.442122, 314.053744)" fill-opacity="1" fill="#000000" fill-rule="nonzero" stroke-linejoin="round" d="M 1731.909572 380.95781 L 1754.569209 349.75633 " stroke="#ff0000" stroke-width="7" stroke-opacity="1" stroke-miterlimit="4"/><path stroke-linecap="round" transform="matrix(0.40425, 0, 0, 0.404503, 409.442122, 314.053744)" fill-opacity="1" fill="#000000" fill-rule="nonzero" stroke-linejoin="round" d="M 1742.374556 391.532127 L 1767.875103 356.438913 " stroke="#ff0000" stroke-width="7" stroke-opacity="1" stroke-miterlimit="4"/><path stroke-linecap="round" transform="matrix(0.40425, 0, 0, 0.404503, 409.442122, 314.053744)" fill-opacity="1" fill="#000000" fill-rule="nonzero" stroke-linejoin="round" d="M 1752.849203 402.116101 L 1781.180997 363.121495 " stroke="#ff0000" stroke-width="7" stroke-opacity="1" stroke-miterlimit="4"/><path stroke-linecap="round" transform="matrix(0.40425, 0, 0, 0.404503, 409.442122, 314.053744)" fill-opacity="1" fill="#000000" fill-rule="nonzero" stroke-linejoin="round" d="M 1648.15105 296.276358 L 1647.880487 95.161532 " stroke="#000000" stroke-width="10" stroke-opacity="1" stroke-miterlimit="4"/><path stroke-linecap="round" transform="matrix(0.40425, 0, 0, 0.404503, 409.442122, 314.053744)" fill-opacity="1" fill="#000000" fill-rule="nonzero" stroke-linejoin="round" d="M 1661.176717 88.469293 L 1658.335808 84.577558 " stroke="#000000" stroke-width="7" stroke-opacity="1" stroke-miterlimit="4"/><path stroke-linecap="round" transform="matrix(0.40425, 0, 0, 0.404503, 409.442122, 314.053744)" fill-opacity="1" fill="#000000" fill-rule="nonzero" stroke-linejoin="round" d="M 1674.472948 81.78671 L 1668.810454 73.993583 " stroke="#000000" stroke-width="7" stroke-opacity="1" stroke-miterlimit="4"/><path stroke-linecap="round" transform="matrix(0.40425, 0, 0, 0.404503, 409.442122, 314.053744)" fill-opacity="1" fill="#000000" fill-rule="nonzero" stroke-linejoin="round" d="M 1687.778842 75.104128 L 1679.275438 63.399952 " stroke="#000000" stroke-width="7" stroke-opacity="1" stroke-miterlimit="4"/><path stroke-linecap="round" transform="matrix(0.40425, 0, 0, 0.404503, 409.442122, 314.053744)" fill-opacity="1" fill="#000000" fill-rule="nonzero" stroke-linejoin="round" d="M 1701.075072 68.411889 L 1689.750085 52.815978 " stroke="#000000" stroke-width="7" stroke-opacity="1" stroke-miterlimit="4"/><path stroke-linecap="round" transform="matrix(0.40425, 0, 0, 0.404503, 409.442122, 314.053744)" fill-opacity="1" fill="#000000" fill-rule="nonzero" stroke-linejoin="round" d="M 1714.380966 61.719649 L 1700.205406 42.232003 " stroke="#000000" stroke-width="7" stroke-opacity="1" stroke-miterlimit="4"/><path stroke-linecap="round" transform="matrix(0.40425, 0, 0, 0.404503, 409.442122, 314.053744)" fill-opacity="1" fill="#000000" fill-rule="nonzero" stroke-linejoin="round" d="M 1727.677196 55.037067 L 1710.680053 31.638372 " stroke="#ff0000" stroke-width="7" stroke-opacity="1" stroke-miterlimit="4"/><path stroke-linecap="round" transform="matrix(0.40425, 0, 0, 0.404503, 409.442122, 314.053744)" fill-opacity="1" fill="#000000" fill-rule="nonzero" stroke-linejoin="round" d="M 1740.973427 48.344828 L 1721.145037 21.054398 " stroke="#ff0000" stroke-width="7" stroke-opacity="1" stroke-miterlimit="4"/><path stroke-linecap="round" transform="matrix(0.40425, 0, 0, 0.404503, 409.442122, 314.053744)" fill-opacity="1" fill="#000000" fill-rule="nonzero" stroke-linejoin="round" d="M 1754.279321 41.652589 L 1731.61002 10.470423 " stroke="#ff0000" stroke-width="7" stroke-opacity="1" stroke-miterlimit="4"/><path stroke-linecap="round" transform="matrix(0.40425, 0, 0, 0.404503, 409.442122, 314.053744)" fill-opacity="1" fill="#000000" fill-rule="nonzero" stroke-linejoin="round" d="M 1767.575551 34.970006 L 1742.075004 -0.113551 " stroke="#ff0000" stroke-width="7" stroke-opacity="1" stroke-miterlimit="4"/><path stroke-linecap="round" transform="matrix(0.40425, 0, 0, 0.404503, 409.442122, 314.053744)" fill-opacity="1" fill="#000000" fill-rule="nonzero" stroke-linejoin="round" d="M 1780.881445 28.287424 L 1752.549651 -10.707182 " stroke="#ff0000" stroke-width="7" stroke-opacity="1" stroke-miterlimit="4"/><path stroke-linecap="round" transform="matrix(0.40425, 0, 0, 0.404503, 409.442122, 314.053744)" fill-opacity="1" fill="#000000" fill-rule="nonzero" stroke-linejoin="round" d="M 1647.880487 95.161532 L 1456.640879 32.816515 " stroke="#000000" stroke-width="10" stroke-opacity="1" stroke-miterlimit="4"/><path stroke-linecap="round" transform="matrix(0.40425, 0, 0, 0.404503, 409.442122, 314.053744)" fill-opacity="1" fill="#0000ff" fill-rule="nonzero" stroke-linejoin="round" d="M 1456.640879 32.816515 L 1431.913369 -121.269155 L 1386.091621 -106.378198 Z M 1456.640879 32.816515 " stroke="#0000ff" stroke-width="7" stroke-opacity="1" stroke-miterlimit="4"/><path stroke-linecap="round" transform="matrix(0.40425, 0, 0, 0.404503, 409.442122, 314.053744)" fill-opacity="1" fill="#000000" fill-rule="nonzero" stroke-linejoin="round" d="M 1456.640879 32.816515 L 1444.272292 -44.22632 L 1421.361418 -36.780842 Z M 1456.640879 32.816515 " stroke="#000000" stroke-width="7" stroke-opacity="1" stroke-miterlimit="4"/><path stroke-linecap="round" transform="matrix(0.40425, 0, 0, 0.404503, 409.442122, 314.053744)" fill-opacity="1" fill="#000000" fill-rule="nonzero" stroke-linejoin="round" d="M 1454.041543 -239.98156 L 1423.467943 -197.916057 " stroke="#0000ff" stroke-width="10" stroke-opacity="1" stroke-miterlimit="4"/><path stroke-linecap="round" transform="matrix(0.40425, 0, 0, 0.404503, 409.442122, 314.053744)" fill-opacity="1" fill="#000000" fill-rule="nonzero" stroke-linejoin="round" d="M 1454.041543 -239.98156 L 1513.4784 -321.785253 " stroke="#000000" stroke-width="10" stroke-opacity="1" stroke-miterlimit="4"/><path stroke-linecap="round" transform="matrix(0.40425, 0, 0, 0.404503, 409.442122, 314.053744)" fill-opacity="1" fill="#000000" fill-rule="nonzero" stroke-linejoin="round" d="M 1298.429263 -189.427632 L 1347.864958 -173.358532 " stroke="#0000ff" stroke-width="10" stroke-opacity="1" stroke-miterlimit="4"/><path stroke-linecap="round" transform="matrix(0.40425, 0, 0, 0.404503, 409.442122, 314.053744)" fill-opacity="1" fill="#000000" fill-rule="nonzero" stroke-linejoin="round" d="M 1298.429263 -189.427632 L 1202.253839 -220.687052 " stroke="#000000" stroke-width="10" stroke-opacity="1" stroke-miterlimit="4"/><path stroke-linecap="round" transform="matrix(0.40425, 0, 0, 0.404503, 409.442122, 314.053744)" fill-opacity="1" fill="#000000" fill-rule="nonzero" stroke-linejoin="round" d="M 1454.041543 -403.579288 L 1513.4784 -321.785253 " stroke="#000000" stroke-width="10" stroke-opacity="1" stroke-miterlimit="4"/><path stroke-linecap="round" transform="matrix(0.40425, 0, 0, 0.404503, 409.442122, 314.053744)" fill-opacity="1" fill="#000000" fill-rule="nonzero" stroke-linejoin="round" d="M 1454.041543 -403.579288 L 1423.477606 -445.625478 " stroke="#0000ff" stroke-width="10" stroke-opacity="1" stroke-miterlimit="4"/><path stroke-linecap="round" transform="matrix(0.40425, 0, 0, 0.404503, 409.442122, 314.053744)" fill-opacity="1" fill="#000000" fill-rule="nonzero" stroke-linejoin="round" d="M 1423.999406 -381.754669 L 1464.419561 -326.140519 " stroke="#000000" stroke-width="10" stroke-opacity="1" stroke-miterlimit="4"/><path stroke-linecap="round" transform="matrix(0.40425, 0, 0, 0.404503, 409.442122, 314.053744)" fill-opacity="1" fill="#000000" fill-rule="nonzero" stroke-linejoin="round" d="M 1423.999406 -381.754669 L 1383.579251 -437.368819 " stroke="#0000ff" stroke-width="10" stroke-opacity="1" stroke-miterlimit="4"/><path stroke-linecap="round" transform="matrix(0.40425, 0, 0, 0.404503, 409.442122, 314.053744)" fill-opacity="1" fill="#000000" fill-rule="nonzero" stroke-linejoin="round" d="M 1298.429263 -454.142873 L 1347.864958 -470.192659 " stroke="#0000ff" stroke-width="10" stroke-opacity="1" stroke-miterlimit="4"/><path stroke-linecap="round" transform="matrix(0.40425, 0, 0, 0.404503, 409.442122, 314.053744)" fill-opacity="1" fill="#000000" fill-rule="nonzero" stroke-linejoin="round" d="M 1298.429263 -454.142873 L 1202.253839 -422.912423 " stroke="#000000" stroke-width="10" stroke-opacity="1" stroke-miterlimit="4"/><path stroke-linecap="round" transform="matrix(0.40425, 0, 0, 0.404503, 409.442122, 314.053744)" fill-opacity="1" fill="#000000" fill-rule="nonzero" stroke-linejoin="round" d="M 1202.253839 -422.912423 L 1027.953397 -524.908716 " stroke="#000000" stroke-width="10" stroke-opacity="1" stroke-miterlimit="4"/><path stroke-linecap="round" transform="matrix(0.40425, 0, 0, 0.404503, 409.442122, 314.053744)" fill="none" stroke-linejoin="round" d="M 1202.253839 -422.912423 L 1202.253839 -220.687052 " stroke="#000000" stroke-width="10" stroke-opacity="1" stroke-miterlimit="4"/><path stroke-linecap="round" transform="matrix(0.40425, 0, 0, 0.404503, 409.442122, 314.053744)" fill="none" stroke-linejoin="round" d="M 1165.128753 -390.561772 L 1165.128753 -253.037704 " stroke="#000000" stroke-width="10" stroke-opacity="1" stroke-miterlimit="4"/><path stroke-linecap="round" transform="matrix(0.40425, 0, 0, 0.404503, 409.442122, 314.053744)" fill="none" stroke-linejoin="round" d="M 1027.953397 -625.321275 L 1027.953397 -524.908716 " stroke="#000000" stroke-width="10" stroke-opacity="1" stroke-miterlimit="4"/><path stroke-linecap="round" transform="matrix(0.40425, 0, 0, 0.404503, 409.442122, 314.053744)" fill="none" stroke-linejoin="round" d="M 1027.953397 -625.321275 L 1027.953397 -676.589815 " stroke="#0000ff" stroke-width="10" stroke-opacity="1" stroke-miterlimit="4"/><path stroke-linecap="round" transform="matrix(0.40425, 0, 0, 0.404503, 409.442122, 314.053744)" fill-opacity="1" fill="#000000" fill-rule="nonzero" stroke-linejoin="round" d="M 940.803176 -473.920227 L 1027.953397 -524.908716 " stroke="#000000" stroke-width="10" stroke-opacity="1" stroke-miterlimit="4"/><path stroke-linecap="round" transform="matrix(0.40425, 0, 0, 0.404503, 409.442122, 314.053744)" fill-opacity="1" fill="#000000" fill-rule="nonzero" stroke-linejoin="round" d="M 940.803176 -473.920227 L 896.054016 -447.730684 " stroke="#0000ff" stroke-width="10" stroke-opacity="1" stroke-miterlimit="4"/><path stroke-linecap="round" transform="matrix(0.40425, 0, 0, 0.404503, 409.442122, 314.053744)" fill-opacity="1" fill="#000000" fill-rule="nonzero" stroke-linejoin="round" d="M 959.558978 -441.868939 L 1018.812239 -476.546906 " stroke="#000000" stroke-width="10" stroke-opacity="1" stroke-miterlimit="4"/><path stroke-linecap="round" transform="matrix(0.40425, 0, 0, 0.404503, 409.442122, 314.053744)" fill-opacity="1" fill="#000000" fill-rule="nonzero" stroke-linejoin="round" d="M 959.558978 -441.868939 L 900.286392 -407.190972 " stroke="#0000ff" stroke-width="10" stroke-opacity="1" stroke-miterlimit="4"/><path stroke-linecap="round" transform="matrix(0.40425, 0, 0, 0.404503, 409.442122, 314.053744)" fill="none" stroke-linejoin="round" d="M 853.643292 -321.930106 L 853.643292 -373.787718 " stroke="#0000ff" stroke-width="10" stroke-opacity="1" stroke-miterlimit="4"/><path stroke-linecap="round" transform="matrix(0.40425, 0, 0, 0.404503, 409.442122, 314.053744)" fill="none" stroke-linejoin="round" d="M 853.643292 -321.930106 L 853.643292 -220.947789 " stroke="#000000" stroke-width="10" stroke-opacity="1" stroke-miterlimit="4"/><path stroke-linecap="round" transform="matrix(0.40425, 0, 0, 0.404503, 409.442122, 314.053744)" fill-opacity="1" fill="#000000" fill-rule="nonzero" stroke-linejoin="round" d="M 940.803176 -170.944305 L 853.643292 -220.947789 " stroke="#000000" stroke-width="10" stroke-opacity="1" stroke-miterlimit="4"/><path stroke-linecap="round" transform="matrix(0.40425, 0, 0, 0.404503, 409.442122, 314.053744)" fill-opacity="1" fill="#000000" fill-rule="nonzero" stroke-linejoin="round" d="M 940.803176 -170.944305 L 985.339751 -145.411432 " stroke="#0000ff" stroke-width="10" stroke-opacity="1" stroke-miterlimit="4"/><path stroke-linecap="round" transform="matrix(0.40425, 0, 0, 0.404503, 409.442122, 314.053744)" fill-opacity="1" fill="#000000" fill-rule="nonzero" stroke-linejoin="round" d="M 959.278753 -203.159759 L 900.015829 -237.161742 " stroke="#000000" stroke-width="10" stroke-opacity="1" stroke-miterlimit="4"/><path stroke-linecap="round" transform="matrix(0.40425, 0, 0, 0.404503, 409.442122, 314.053744)" fill-opacity="1" fill="#000000" fill-rule="nonzero" stroke-linejoin="round" d="M 959.278753 -203.159759 L 1018.541676 -169.167433 " stroke="#0000ff" stroke-width="10" stroke-opacity="1" stroke-miterlimit="4"/><path stroke-linecap="round" transform="matrix(0.40425, 0, 0, 0.404503, 409.442122, 314.053744)" fill-opacity="1" fill="#000000" fill-rule="nonzero" stroke-linejoin="round" d="M 1115.103618 -170.818765 L 1070.596032 -145.353491 " stroke="#0000ff" stroke-width="10" stroke-opacity="1" stroke-miterlimit="4"/><path stroke-linecap="round" transform="matrix(0.40425, 0, 0, 0.404503, 409.442122, 314.053744)" fill-opacity="1" fill="#000000" fill-rule="nonzero" stroke-linejoin="round" d="M 1115.103618 -170.818765 L 1202.253839 -220.687052 " stroke="#000000" stroke-width="10" stroke-opacity="1" stroke-miterlimit="4"/><g fill="#ff0000" fill-opacity="1"><g transform="translate(1008.246786, 610.406258)"><g><path d="M 25.375 -12.078125 C 25.375 -9.578125 24.894531 -7.382812 23.9375 -5.5 C 22.988281 -3.625 21.617188 -2.179688 19.828125 -1.171875 C 18.035156 -0.160156 15.925781 0.34375 13.5 0.34375 C 11.039062 0.34375 8.921875 -0.15625 7.140625 -1.15625 C 5.359375 -2.15625 3.992188 -3.597656 3.046875 -5.484375 C 2.109375 -7.367188 1.640625 -9.566406 1.640625 -12.078125 C 1.640625 -15.898438 2.6875 -18.890625 4.78125 -21.046875 C 6.875 -23.203125 9.789062 -24.28125 13.53125 -24.28125 C 15.957031 -24.28125 18.066406 -23.796875 19.859375 -22.828125 C 21.648438 -21.859375 23.015625 -20.453125 23.953125 -18.609375 C 24.898438 -16.765625 25.375 -14.585938 25.375 -12.078125 Z M 22.0625 -12.078125 C 22.0625 -15.054688 21.316406 -17.394531 19.828125 -19.09375 C 18.347656 -20.789062 16.25 -21.640625 13.53125 -21.640625 C 10.789062 -21.640625 8.671875 -20.800781 7.171875 -19.125 C 5.679688 -17.445312 4.9375 -15.097656 4.9375 -12.078125 C 4.9375 -9.078125 5.691406 -6.695312 7.203125 -4.9375 C 8.710938 -3.175781 10.8125 -2.296875 13.5 -2.296875 C 16.257812 -2.296875 18.375 -3.144531 19.84375 -4.84375 C 21.320312 -6.550781 22.0625 -8.960938 22.0625 -12.078125 Z M 22.0625 -12.078125 "/></g></g></g><g fill="#ff0000" fill-opacity="1"><g transform="translate(936.880354, 404.859399)"><g><path d="M 25.375 -12.078125 C 25.375 -9.578125 24.894531 -7.382812 23.9375 -5.5 C 22.988281 -3.625 21.617188 -2.179688 19.828125 -1.171875 C 18.035156 -0.160156 15.925781 0.34375 13.5 0.34375 C 11.039062 0.34375 8.921875 -0.15625 7.140625 -1.15625 C 5.359375 -2.15625 3.992188 -3.597656 3.046875 -5.484375 C 2.109375 -7.367188 1.640625 -9.566406 1.640625 -12.078125 C 1.640625 -15.898438 2.6875 -18.890625 4.78125 -21.046875 C 6.875 -23.203125 9.789062 -24.28125 13.53125 -24.28125 C 15.957031 -24.28125 18.066406 -23.796875 19.859375 -22.828125 C 21.648438 -21.859375 23.015625 -20.453125 23.953125 -18.609375 C 24.898438 -16.765625 25.375 -14.585938 25.375 -12.078125 Z M 22.0625 -12.078125 C 22.0625 -15.054688 21.316406 -17.394531 19.828125 -19.09375 C 18.347656 -20.789062 16.25 -21.640625 13.53125 -21.640625 C 10.789062 -21.640625 8.671875 -20.800781 7.171875 -19.125 C 5.679688 -17.445312 4.9375 -15.097656 4.9375 -12.078125 C 4.9375 -9.078125 5.691406 -6.695312 7.203125 -4.9375 C 8.710938 -3.175781 10.8125 -2.296875 13.5 -2.296875 C 16.257812 -2.296875 18.375 -3.144531 19.84375 -4.84375 C 21.320312 -6.550781 22.0625 -8.960938 22.0625 -12.078125 Z M 22.0625 -12.078125 "/></g></g></g><g fill="#ff0000" fill-opacity="1"><g transform="translate(1127.864259, 493.116226)"><g><path d="M 25.375 -12.078125 C 25.375 -9.578125 24.894531 -7.382812 23.9375 -5.5 C 22.988281 -3.625 21.617188 -2.179688 19.828125 -1.171875 C 18.035156 -0.160156 15.925781 0.34375 13.5 0.34375 C 11.039062 0.34375 8.921875 -0.15625 7.140625 -1.15625 C 5.359375 -2.15625 3.992188 -3.597656 3.046875 -5.484375 C 2.109375 -7.367188 1.640625 -9.566406 1.640625 -12.078125 C 1.640625 -15.898438 2.6875 -18.890625 4.78125 -21.046875 C 6.875 -23.203125 9.789062 -24.28125 13.53125 -24.28125 C 15.957031 -24.28125 18.066406 -23.796875 19.859375 -22.828125 C 21.648438 -21.859375 23.015625 -20.453125 23.953125 -18.609375 C 24.898438 -16.765625 25.375 -14.585938 25.375 -12.078125 Z M 22.0625 -12.078125 C 22.0625 -15.054688 21.316406 -17.394531 19.828125 -19.09375 C 18.347656 -20.789062 16.25 -21.640625 13.53125 -21.640625 C 10.789062 -21.640625 8.671875 -20.800781 7.171875 -19.125 C 5.679688 -17.445312 4.9375 -15.097656 4.9375 -12.078125 C 4.9375 -9.078125 5.691406 -6.695312 7.203125 -4.9375 C 8.710938 -3.175781 10.8125 -2.296875 13.5 -2.296875 C 16.257812 -2.296875 18.375 -3.144531 19.84375 -4.84375 C 21.320312 -6.550781 22.0625 -8.960938 22.0625 -12.078125 Z M 22.0625 -12.078125 "/></g></g></g><g fill="#ff0000" fill-opacity="1"><g transform="translate(1155.415364, 493.116226)"><g><path d="M 19.03125 0 L 19.03125 -11.09375 L 6.09375 -11.09375 L 6.09375 0 L 2.859375 0 L 2.859375 -23.921875 L 6.09375 -23.921875 L 6.09375 -13.8125 L 19.03125 -13.8125 L 19.03125 -23.921875 L 22.265625 -23.921875 L 22.265625 0 Z M 19.03125 0 "/></g></g></g><g fill="#ff0000" fill-opacity="1"><g transform="translate(1127.732501, 316.280306)"><g><path d="M 25.375 -12.078125 C 25.375 -9.578125 24.894531 -7.382812 23.9375 -5.5 C 22.988281 -3.625 21.617188 -2.179688 19.828125 -1.171875 C 18.035156 -0.160156 15.925781 0.34375 13.5 0.34375 C 11.039062 0.34375 8.921875 -0.15625 7.140625 -1.15625 C 5.359375 -2.15625 3.992188 -3.597656 3.046875 -5.484375 C 2.109375 -7.367188 1.640625 -9.566406 1.640625 -12.078125 C 1.640625 -15.898438 2.6875 -18.890625 4.78125 -21.046875 C 6.875 -23.203125 9.789062 -24.28125 13.53125 -24.28125 C 15.957031 -24.28125 18.066406 -23.796875 19.859375 -22.828125 C 21.648438 -21.859375 23.015625 -20.453125 23.953125 -18.609375 C 24.898438 -16.765625 25.375 -14.585938 25.375 -12.078125 Z M 22.0625 -12.078125 C 22.0625 -15.054688 21.316406 -17.394531 19.828125 -19.09375 C 18.347656 -20.789062 16.25 -21.640625 13.53125 -21.640625 C 10.789062 -21.640625 8.671875 -20.800781 7.171875 -19.125 C 5.679688 -17.445312 4.9375 -15.097656 4.9375 -12.078125 C 4.9375 -9.078125 5.691406 -6.695312 7.203125 -4.9375 C 8.710938 -3.175781 10.8125 -2.296875 13.5 -2.296875 C 16.257812 -2.296875 18.375 -3.144531 19.84375 -4.84375 C 21.320312 -6.550781 22.0625 -8.960938 22.0625 -12.078125 Z M 22.0625 -12.078125 "/></g></g></g><g fill="#ff0000" fill-opacity="1"><g transform="translate(1155.29825, 316.280306)"><g><path d="M 19.03125 0 L 19.03125 -11.09375 L 6.09375 -11.09375 L 6.09375 0 L 2.859375 0 L 2.859375 -23.921875 L 6.09375 -23.921875 L 6.09375 -13.8125 L 19.03125 -13.8125 L 19.03125 -23.921875 L 22.265625 -23.921875 L 22.265625 0 Z M 19.03125 0 "/></g></g></g><g fill="#0000ff" fill-opacity="1"><g transform="translate(960.654527, 261.568398)"><g><path d="M 18.375 0 L 5.5625 -20.375 L 5.65625 -18.734375 L 5.734375 -15.890625 L 5.734375 0 L 2.859375 0 L 2.859375 -23.921875 L 6.625 -23.921875 L 19.5625 -3.40625 C 19.425781 -5.632812 19.359375 -7.242188 19.359375 -8.234375 L 19.359375 -23.921875 L 22.265625 -23.921875 L 22.265625 0 Z M 18.375 0 "/></g></g></g><g fill="#0000ff" fill-opacity="1"><g transform="translate(960.654527, 129.205125)"><g><path d="M 18.375 0 L 5.5625 -20.375 L 5.65625 -18.734375 L 5.734375 -15.890625 L 5.734375 0 L 2.859375 0 L 2.859375 -23.921875 L 6.625 -23.921875 L 19.5625 -3.40625 C 19.425781 -5.632812 19.359375 -7.242188 19.359375 -8.234375 L 19.359375 -23.921875 L 22.265625 -23.921875 L 22.265625 0 Z M 18.375 0 "/></g></g></g><g fill="#0000ff" fill-opacity="1"><g transform="translate(812.431922, 31.98346)"><g><path d="M 18.375 0 L 5.5625 -20.375 L 5.65625 -18.734375 L 5.734375 -15.890625 L 5.734375 0 L 2.859375 0 L 2.859375 -23.921875 L 6.625 -23.921875 L 19.5625 -3.40625 C 19.425781 -5.632812 19.359375 -7.242188 19.359375 -8.234375 L 19.359375 -23.921875 L 22.265625 -23.921875 L 22.265625 0 Z M 18.375 0 "/></g></g></g><g fill="#0000ff" fill-opacity="1"><g transform="translate(836.762388, 31.98346)"><g><path d="M 19.03125 0 L 19.03125 -11.09375 L 6.09375 -11.09375 L 6.09375 0 L 2.859375 0 L 2.859375 -23.921875 L 6.09375 -23.921875 L 6.09375 -13.8125 L 19.03125 -13.8125 L 19.03125 -23.921875 L 22.265625 -23.921875 L 22.265625 0 Z M 19.03125 0 "/></g></g></g><g fill="#0000ff" fill-opacity="1"><g transform="translate(861.868739, 35.469788)"><g><path d="M 0.875 0 L 0.875 -1.078125 C 1.164062 -1.742188 1.515625 -2.328125 1.921875 -2.828125 C 2.335938 -3.335938 2.773438 -3.796875 3.234375 -4.203125 C 3.691406 -4.617188 4.144531 -5 4.59375 -5.34375 C 5.050781 -5.695312 5.457031 -6.046875 5.8125 -6.390625 C 6.175781 -6.742188 6.46875 -7.113281 6.6875 -7.5 C 6.914062 -7.882812 7.03125 -8.320312 7.03125 -8.8125 C 7.03125 -9.46875 6.835938 -9.976562 6.453125 -10.34375 C 6.066406 -10.707031 5.535156 -10.890625 4.859375 -10.890625 C 4.203125 -10.890625 3.660156 -10.710938 3.234375 -10.359375 C 2.816406 -10.003906 2.570312 -9.503906 2.5 -8.859375 L 0.9375 -9.015625 C 1.050781 -9.960938 1.457031 -10.71875 2.15625 -11.28125 C 2.851562 -11.851562 3.753906 -12.140625 4.859375 -12.140625 C 6.054688 -12.140625 6.976562 -11.851562 7.625 -11.28125 C 8.28125 -10.71875 8.609375 -9.910156 8.609375 -8.859375 C 8.609375 -8.398438 8.5 -7.941406 8.28125 -7.484375 C 8.070312 -7.023438 7.753906 -6.566406 7.328125 -6.109375 C 6.910156 -5.648438 6.113281 -4.9375 4.9375 -3.96875 C 4.289062 -3.4375 3.773438 -2.957031 3.390625 -2.53125 C 3.003906 -2.101562 2.722656 -1.691406 2.546875 -1.296875 L 8.796875 -1.296875 L 8.796875 0 Z M 0.875 0 "/></g></g></g><g fill="#0000ff" fill-opacity="1"><g transform="translate(741.973125, 154.473682)"><g><path d="M 18.375 0 L 5.5625 -20.375 L 5.65625 -18.734375 L 5.734375 -15.890625 L 5.734375 0 L 2.859375 0 L 2.859375 -23.921875 L 6.625 -23.921875 L 19.5625 -3.40625 C 19.425781 -5.632812 19.359375 -7.242188 19.359375 -8.234375 L 19.359375 -23.921875 L 22.265625 -23.921875 L 22.265625 0 Z M 18.375 0 "/></g></g></g><g fill="#0000ff" fill-opacity="1"><g transform="translate(812.431922, 276.612342)"><g><path d="M 18.375 0 L 5.5625 -20.375 L 5.65625 -18.734375 L 5.734375 -15.890625 L 5.734375 0 L 2.859375 0 L 2.859375 -23.921875 L 6.625 -23.921875 L 19.5625 -3.40625 C 19.425781 -5.632812 19.359375 -7.242188 19.359375 -8.234375 L 19.359375 -23.921875 L 22.265625 -23.921875 L 22.265625 0 Z M 18.375 0 "/></g></g></g><path stroke-linecap="round" transform="matrix(0.40425, 0, 0, 0.404503, 409.442122, 314.053744)" fill-opacity="1" fill="#000000" fill-rule="nonzero" stroke-linejoin="round" d="M 1383.463296 1028.395743 L 1425.77739 1014.644302 " stroke="#ac00ac" stroke-width="10" stroke-opacity="1" stroke-miterlimit="4"/><path stroke-linecap="round" transform="matrix(0.40425, 0, 0, 0.404503, 409.442122, 314.053744)" fill-opacity="1" fill="#000000" fill-rule="nonzero" stroke-linejoin="round" d="M 1383.463296 1028.395743 L 1349.17912 1039.539818 " stroke="#ff0000" stroke-width="10" stroke-opacity="1" stroke-miterlimit="4"/><path stroke-linecap="round" transform="matrix(0.40425, 0, 0, 0.404503, 409.442122, 314.053744)" fill-opacity="1" fill="#000000" fill-rule="nonzero" stroke-linejoin="round" d="M 1394.005583 1060.862277 L 1436.339004 1047.120493 " stroke="#ac00ac" stroke-width="10" stroke-opacity="1" stroke-miterlimit="4"/><path stroke-linecap="round" transform="matrix(0.40425, 0, 0, 0.404503, 409.442122, 314.053744)" fill-opacity="1" fill="#000000" fill-rule="nonzero" stroke-linejoin="round" d="M 1394.005583 1060.862277 L 1359.721407 1072.006352 " stroke="#ff0000" stroke-width="10" stroke-opacity="1" stroke-miterlimit="4"/><path stroke-linecap="round" transform="matrix(0.40425, 0, 0, 0.404503, 409.442122, 314.053744)" fill-opacity="1" fill="#ff0000" fill-rule="nonzero" stroke-linejoin="round" d="M 1512.608734 1004.388662 L 1601.24705 998.005444 L 1588.076438 957.456076 Z M 1512.608734 1004.388662 " stroke="#ff0000" stroke-width="7" stroke-opacity="1" stroke-miterlimit="4"/><path stroke-linecap="round" transform="matrix(0.40425, 0, 0, 0.404503, 409.442122, 314.053744)" fill-opacity="1" fill="#ac00ac" fill-rule="nonzero" stroke-linejoin="round" d="M 1512.608734 1004.388662 L 1556.932723 1001.192225 L 1550.342586 980.922369 Z M 1512.608734 1004.388662 " stroke="#ac00ac" stroke-width="7" stroke-opacity="1" stroke-miterlimit="4"/><path stroke-linecap="round" transform="matrix(0.40425, 0, 0, 0.404503, 409.442122, 314.053744)" fill-opacity="1" fill="#000000" fill-rule="nonzero" stroke-linejoin="round" d="M 1500.636328 1101.662726 L 1486.876276 1059.336485 " stroke="#ac00ac" stroke-width="10" stroke-opacity="1" stroke-miterlimit="4"/><path stroke-linecap="round" transform="matrix(0.40425, 0, 0, 0.404503, 409.442122, 314.053744)" fill-opacity="1" fill="#000000" fill-rule="nonzero" stroke-linejoin="round" d="M 1500.636328 1101.662726 L 1511.777719 1135.935103 " stroke="#ff0000" stroke-width="10" stroke-opacity="1" stroke-miterlimit="4"/><path stroke-linecap="round" transform="matrix(0.40425, 0, 0, 0.404503, 409.442122, 314.053744)" fill-opacity="1" fill="#000000" fill-rule="nonzero" stroke-linejoin="round" d="M 1445.760388 932.724727 L 1459.501115 975.050967 " stroke="#ac00ac" stroke-width="10" stroke-opacity="1" stroke-miterlimit="4"/><path stroke-linecap="round" transform="matrix(0.40425, 0, 0, 0.404503, 409.442122, 314.053744)" fill-opacity="1" fill="#000000" fill-rule="nonzero" stroke-linejoin="round" d="M 1445.760388 932.724727 L 1418.317586 848.255727 " stroke="#000000" stroke-width="10" stroke-opacity="1" stroke-miterlimit="4"/><path stroke-linecap="round" transform="matrix(0.40425, 0, 0, 0.404503, 409.442122, 314.053744)" fill-opacity="1" fill="#000000" fill-rule="nonzero" stroke-linejoin="round" d="M 1477.74478 782.260398 L 1418.317586 848.255727 " stroke="#000000" stroke-width="10" stroke-opacity="1" stroke-miterlimit="4"/><path stroke-linecap="round" transform="matrix(0.40425, 0, 0, 0.404503, 409.442122, 314.053744)" fill-opacity="1" fill="#000000" fill-rule="nonzero" stroke-linejoin="round" d="M 1477.74478 782.260398 L 1501.863524 755.472127 " stroke="#ff0000" stroke-width="10" stroke-opacity="1" stroke-miterlimit="4"/><g fill="#ac00ac" fill-opacity="1"><g transform="translate(994.64691, 735.738276)"><g><path d="M 19.015625 -14.90625 C 19.015625 -12.882812 18.359375 -11.28125 17.046875 -10.09375 C 15.734375 -8.90625 13.945312 -8.3125 11.6875 -8.3125 L 5.421875 -8.3125 L 5.421875 0 L 2.546875 0 L 2.546875 -21.3125 L 11.5 -21.3125 C 13.894531 -21.3125 15.742188 -20.75 17.046875 -19.625 C 18.359375 -18.507812 19.015625 -16.9375 19.015625 -14.90625 Z M 16.125 -14.875 C 16.125 -17.625 14.46875 -19 11.15625 -19 L 5.421875 -19 L 5.421875 -10.59375 L 11.28125 -10.59375 C 14.507812 -10.59375 16.125 -12.019531 16.125 -14.875 Z M 16.125 -14.875 "/></g></g></g><g fill="#ff0000" fill-opacity="1"><g transform="translate(924.627281, 757.930652)"><g><path d="M 22.609375 -10.75 C 22.609375 -8.519531 22.179688 -6.566406 21.328125 -4.890625 C 20.472656 -3.222656 19.25 -1.941406 17.65625 -1.046875 C 16.0625 -0.148438 14.179688 0.296875 12.015625 0.296875 C 9.828125 0.296875 7.941406 -0.144531 6.359375 -1.03125 C 4.773438 -1.914062 3.5625 -3.195312 2.71875 -4.875 C 1.882812 -6.550781 1.46875 -8.507812 1.46875 -10.75 C 1.46875 -14.164062 2.398438 -16.832031 4.265625 -18.75 C 6.128906 -20.675781 8.722656 -21.640625 12.046875 -21.640625 C 14.210938 -21.640625 16.09375 -21.207031 17.6875 -20.34375 C 19.28125 -19.476562 20.5 -18.222656 21.34375 -16.578125 C 22.1875 -14.929688 22.609375 -12.988281 22.609375 -10.75 Z M 19.65625 -10.75 C 19.65625 -13.40625 18.992188 -15.488281 17.671875 -17 C 16.347656 -18.519531 14.472656 -19.28125 12.046875 -19.28125 C 9.609375 -19.28125 7.722656 -18.53125 6.390625 -17.03125 C 5.066406 -15.539062 4.40625 -13.445312 4.40625 -10.75 C 4.40625 -8.082031 5.078125 -5.960938 6.421875 -4.390625 C 7.765625 -2.828125 9.628906 -2.046875 12.015625 -2.046875 C 14.484375 -2.046875 16.375 -2.800781 17.6875 -4.3125 C 19 -5.832031 19.65625 -7.976562 19.65625 -10.75 Z M 19.65625 -10.75 "/></g></g></g><g fill="#ff0000" fill-opacity="1"><g transform="translate(1061.226306, 713.531247)"><g><path d="M 22.609375 -10.75 C 22.609375 -8.519531 22.179688 -6.566406 21.328125 -4.890625 C 20.472656 -3.222656 19.25 -1.941406 17.65625 -1.046875 C 16.0625 -0.148438 14.179688 0.296875 12.015625 0.296875 C 9.828125 0.296875 7.941406 -0.144531 6.359375 -1.03125 C 4.773438 -1.914062 3.5625 -3.195312 2.71875 -4.875 C 1.882812 -6.550781 1.46875 -8.507812 1.46875 -10.75 C 1.46875 -14.164062 2.398438 -16.832031 4.265625 -18.75 C 6.128906 -20.675781 8.722656 -21.640625 12.046875 -21.640625 C 14.210938 -21.640625 16.09375 -21.207031 17.6875 -20.34375 C 19.28125 -19.476562 20.5 -18.222656 21.34375 -16.578125 C 22.1875 -14.929688 22.609375 -12.988281 22.609375 -10.75 Z M 19.65625 -10.75 C 19.65625 -13.40625 18.992188 -15.488281 17.671875 -17 C 16.347656 -18.519531 14.472656 -19.28125 12.046875 -19.28125 C 9.609375 -19.28125 7.722656 -18.53125 6.390625 -17.03125 C 5.066406 -15.539062 4.40625 -13.445312 4.40625 -10.75 C 4.40625 -8.082031 5.078125 -5.960938 6.421875 -4.390625 C 7.765625 -2.828125 9.628906 -2.046875 12.015625 -2.046875 C 14.484375 -2.046875 16.375 -2.800781 17.6875 -4.3125 C 19 -5.832031 19.65625 -7.976562 19.65625 -10.75 Z M 19.65625 -10.75 "/></g></g></g><g fill="#ff0000" fill-opacity="1"><g transform="translate(1085.776356, 713.531247)"><g><path d="M 16.953125 0 L 16.953125 -9.875 L 5.421875 -9.875 L 5.421875 0 L 2.546875 0 L 2.546875 -21.3125 L 5.421875 -21.3125 L 5.421875 -12.296875 L 16.953125 -12.296875 L 16.953125 -21.3125 L 19.84375 -21.3125 L 19.84375 0 Z M 16.953125 0 "/></g></g></g><g fill="#ff0000" fill-opacity="1"><g transform="translate(997.45765, 803.047835)"><g><path d="M 22.609375 -10.75 C 22.609375 -8.519531 22.179688 -6.566406 21.328125 -4.890625 C 20.472656 -3.222656 19.25 -1.941406 17.65625 -1.046875 C 16.0625 -0.148438 14.179688 0.296875 12.015625 0.296875 C 9.828125 0.296875 7.941406 -0.144531 6.359375 -1.03125 C 4.773438 -1.914062 3.5625 -3.195312 2.71875 -4.875 C 1.882812 -6.550781 1.46875 -8.507812 1.46875 -10.75 C 1.46875 -14.164062 2.398438 -16.832031 4.265625 -18.75 C 6.128906 -20.675781 8.722656 -21.640625 12.046875 -21.640625 C 14.210938 -21.640625 16.09375 -21.207031 17.6875 -20.34375 C 19.28125 -19.476562 20.5 -18.222656 21.34375 -16.578125 C 22.1875 -14.929688 22.609375 -12.988281 22.609375 -10.75 Z M 19.65625 -10.75 C 19.65625 -13.40625 18.992188 -15.488281 17.671875 -17 C 16.347656 -18.519531 14.472656 -19.28125 12.046875 -19.28125 C 9.609375 -19.28125 7.722656 -18.53125 6.390625 -17.03125 C 5.066406 -15.539062 4.40625 -13.445312 4.40625 -10.75 C 4.40625 -8.082031 5.078125 -5.960938 6.421875 -4.390625 C 7.765625 -2.828125 9.628906 -2.046875 12.015625 -2.046875 C 14.484375 -2.046875 16.375 -2.800781 17.6875 -4.3125 C 19 -5.832031 19.65625 -7.976562 19.65625 -10.75 Z M 19.65625 -10.75 "/></g></g></g><g fill="#ff0000" fill-opacity="1"><g transform="translate(1022.007699, 803.047835)"><g><path d="M 16.953125 0 L 16.953125 -9.875 L 5.421875 -9.875 L 5.421875 0 L 2.546875 0 L 2.546875 -21.3125 L 5.421875 -21.3125 L 5.421875 -12.296875 L 16.953125 -12.296875 L 16.953125 -21.3125 L 19.84375 -21.3125 L 19.84375 0 Z M 16.953125 0 "/></g></g></g><path stroke-linecap="butt" transform="matrix(-0.529868, -0.772391, 0.773076, -0.530339, 586.409737, 477.579404)" fill="none" stroke-linejoin="miter" d="M -0.00139802 2.000519 L 77.088115 2.000044 " stroke="#6d9384" stroke-width="4" stroke-opacity="1" stroke-miterlimit="4"/><path stroke-linecap="round" transform="matrix(-2.119473, -3.089563, 3.092305, -2.121355, 541.281003, 408.480623)" fill-opacity="1" fill="#6d9384" fill-rule="nonzero" stroke-linejoin="round" d="M -2.500061 -1.499984 L -0.500291 -0.000489484 L -2.500298 1.499992 Z M -2.500061 -1.499984 " stroke="#6d9384" stroke-width="1" stroke-opacity="1" stroke-miterlimit="4"/></svg>